<svg width="94" height="94" fill="none" xmlns="http://www.w3.org/2000/svg"><g filter="url(#a)"><path fill="#69B9FF" d="M0 0h94v94H0z"/><path fill-rule="evenodd" clip-rule="evenodd" d="M40.7333 15.6667c-1.88 0-3.1333 1.2533-3.1333 3.1333v14.4133l-19.74-19.74c-1.2533-1.2533-3.1333-1.2533-4.3867 0-1.2533 1.2534-1.2533 3.1334 0 4.3867l19.74 19.74H18.8c-1.88 0-3.1333 1.2533-3.1333 3.1333 0 1.88 1.2533 3.1334 3.1333 3.1334h21.9333c1.88 0 3.1334-1.5667 3.1334-3.1334V18.8c0-1.88-1.5667-3.1333-3.1334-3.1333ZM80.5267 76.14l-19.74-19.74H75.2c1.88 0 3.1333-1.2533 3.1333-3.1333 0-1.88-1.2533-3.1334-3.1333-3.1334H53.2667c-1.88 0-3.1334 1.5667-3.1334 3.1334V75.2c0 1.88 1.2534 3.1333 3.1334 3.1333S56.4 77.08 56.4 75.2V60.7867l19.74 19.74c1.2533 1.2533 3.1333 1.2533 4.3867 0 1.2533-1.2534 1.2533-3.1334 0-4.3867Z" fill="#fff"/><path stroke="#fff" stroke-width="10" d="M5 5h84v84H5z"/></g><defs><filter id="a" x="0" y="0" width="94" height="94" filterUnits="userSpaceOnUse" color-interpolation-filters="sRGB"><feFlood flood-opacity="0" result="BackgroundImageFix"/><feColorMatrix in="SourceAlpha" values="0 0 0 0 0 0 0 0 0 0 0 0 0 0 0 0 0 0 127 0" result="hardAlpha"/><feOffset/><feColorMatrix values="0 0 0 0 0.180392 0 0 0 0 0.615686 0 0 0 0 1 0 0 0 1 0"/><feBlend in2="BackgroundImageFix" result="effect1_dropShadow_2_41"/><feBlend in="SourceGraphic" in2="effect1_dropShadow_2_41" result="shape"/></filter></defs></svg>