<svg width="94" height="94" fill="none" xmlns="http://www.w3.org/2000/svg"><g filter="url(#a)"><path fill="#69B9FF" d="M0 0h94v94H0z"/><path fill-rule="evenodd" clip-rule="evenodd" d="M65.8 18.8H28.2L9.40002 37.6v28.2c0 5.3267 4.38668 9.4 9.39998 9.4h56.4c5.3267 0 9.4-4.0733 9.4-9.4V37.6L65.8 18.8Zm-35.0933 6.2667h32.5867L75.8267 37.6H59.5334c0 6.2667-5.64 12.5333-12.5334 12.5333-6.8933 0-12.5333-6.2666-12.5333-12.5333H18.1734l12.5333-12.5333ZM78.3334 65.8c0 1.88-1.2534 3.1333-3.1334 3.1333H18.8c-1.88 0-3.1333-1.5666-3.1333-3.1333V43.8667H29.14C31.96 51.0733 39.1667 56.4 47 56.4c7.8334 0 15.04-5.3267 17.5467-12.5333h13.7867V65.8Z" fill="#fff"/><path stroke="#fff" stroke-width="10" d="M5 5h84v84H5z"/></g><defs><filter id="a" x="0" y="0" width="94" height="94" filterUnits="userSpaceOnUse" color-interpolation-filters="sRGB"><feFlood flood-opacity="0" result="BackgroundImageFix"/><feColorMatrix in="SourceAlpha" values="0 0 0 0 0 0 0 0 0 0 0 0 0 0 0 0 0 0 127 0" result="hardAlpha"/><feOffset/><feColorMatrix values="0 0 0 0 0.180392 0 0 0 0 0.615686 0 0 0 0 1 0 0 0 1 0"/><feBlend in2="BackgroundImageFix" result="effect1_dropShadow_2_50"/><feBlend in="SourceGraphic" in2="effect1_dropShadow_2_50" result="shape"/></filter></defs></svg>