<svg width="19" height="18" fill="none" xmlns="http://www.w3.org/2000/svg"><path d="M1.26666 4.73325c0 1.46667.46667 2.6 1.46667 3.2.8.53333 1.73333.6 2.2.6H5.2s-.13334 1 .6 2.00005h-.06667c-1.26667 0-5.46667.2666-5.46667 3.7333 0 3.5333 3.86667 3.6667 4.66667 3.6667h.2c.46667 0 1.8-.0667 3-.6667 1.53333-.7333 2.33337-2.0667 2.33337-3.8667 0-1.7333-1.20004-2.8-2.0667-3.59998-.53334-.46667-1-.86667-1-1.26667 0-.4.33333-.73333.73333-1.06667.66667-.6 1.33333-1.46666 1.33333-3.13333 0-1.46666-.2-2.46666-1.33333-3.06666.2-.06667.66667-.13334.86667-.13334.6-.06666 1.5333-.2 1.5333-.66667V.33326H5.93333c-.06667 0-4.66667.2-4.66667 4.4Zm7.46667 9.00005C8.8 15.1333 7.6 16.1999 5.8 16.3333c-1.86667.1333-3.33334-.6667-3.4-2.0667-.06667-.6667.26666-1.3333.86666-1.8667.6-.5333 1.4-.8666 2.26667-.9333h.33333c1.6-.0667 2.73334.9333 2.86667 2.2667Zm-1.2-10.00005c.46667 1.6-.2 3.26667-1.33333 3.53333-.13334.06667-.26667.06667-.4.06667-1 0-2-1-2.33334-2.4-.2-.73333-.2-1.4.06667-2.06666.2-.66667.66667-1.06667 1.13333-1.2.13334-.06667.26667-.06667.4-.06667 1.2 0 1.93334.46667 2.46667 2.13333Zm7.73337 3.4v-3h-2v3h-3v2h3v3.00005h2V9.13325h3v-2h-3Z" fill="#000"/></svg>