<svg width="20" height="16" fill="none" xmlns="http://www.w3.org/2000/svg"><path d="M17.4667 4.40008v.46667c0 5-3.8 10.73335-10.73335 10.73335-2.13333 0-4.13333-.6-5.8-1.6667.26667 0 .6.0667.93333.0667 1.8 0 3.4-.6 4.66667-1.6-1.66667 0-3.06667-1.1334-3.53333-2.60002.2.06667.46666.06667.73333.06667.33333 0 .66667-.06667 1-.13333-1.73333-.4-3.06667-1.93334-3.06667-3.73334v-.06667c.53334.26667 1.06667.46667 1.73334.46667-1-.66666-1.66667-1.8-1.66667-3.13333 0-.66667.2-1.33334.53333-1.86667 1.86667 2.26667 4.66667 3.8 7.80002 3.93334C10 5.06675 10 4.80008 10 4.46675c0-2.06667 1.6667-3.8 3.8-3.8 1.0667 0 2.0667.46666 2.7333 1.2.8667-.2 1.6667-.46667 2.4-.93333-.2666.86666-.8666 1.59999-1.6666 2.06666.6666-.06667 1.4-.26667 2.0667-.53333-.5334.73333-1.1334 1.4-1.8667 1.93333Z" fill="#000"/></svg>