<svg width="140" height="20" fill="none" xmlns="http://www.w3.org/2000/svg"><path d="M14.9048 1.15332 8.49609 19h-2.0874L0 1.15332h2.17285L6.34766 12.9087c.17089.472.32145.9237.45166 1.355.13834.4313.26041.8463.36621 1.2451.10579.3988.19938.7853.28076 1.1597.08138-.3744.17497-.7609.28076-1.1597.1058-.4069.22787-.826.36621-1.2573.13835-.4395.29297-.8993.46387-1.3794L12.7075 1.15332h2.1973ZM31.2949 19h-9.9365V1.15332h9.9365v1.83106h-7.8613V8.7583h7.4097v1.8066h-7.4097v6.604h7.8613V19Zm7.9551 0V1.15332h2.0752V17.1445h7.9224V19H39.25Zm32.54-8.9478c0 1.3754-.1749 2.6286-.5249 3.7598-.3499 1.1231-.8707 2.0915-1.5625 2.9053-.6836.8056-1.534 1.4282-2.5512 1.8677-1.0173.4394-2.1973.6591-3.5401.6591-1.3834 0-2.5919-.2197-3.6255-.6591-1.0254-.4395-1.8798-1.0661-2.5634-1.8799-.6755-.8138-1.1841-1.7863-1.5259-2.9175-.3337-1.1312-.5005-2.3844-.5005-3.7598 0-1.82288.3011-3.42201.9033-4.79733.6022-1.37533 1.5137-2.44548 2.7344-3.21045 1.2288-.76497 2.7669-1.14746 4.6142-1.14746 1.766 0 3.2512.37842 4.4556 1.13525 1.2126.75684 2.1281 1.82292 2.7466 3.19824.6266 1.36719.9399 2.98259.9399 4.84615Zm-14.2089 0c0 1.5137.2156 2.8239.6469 3.9307.4313 1.1068 1.0905 1.9613 1.9776 2.5635.8951.6022 2.0304.9033 3.4057.9033 1.3835 0 2.5147-.3011 3.3936-.9033.887-.6022 1.5421-1.4567 1.9653-2.5635.4232-1.1068.6348-2.417.6348-3.9307 0-2.30301-.4842-4.10152-1.4527-5.39546-.9602-1.30209-2.4617-1.95313-4.5044-1.95313-1.3834 0-2.5227.29704-3.4179.89112-.8952.59407-1.5625 1.44043-2.002 2.53906-.4313 1.09049-.6469 2.39665-.6469 3.91841Zm29.8178-7.32417c-.9847 0-1.8717.1709-2.6611.51269-.7813.33366-1.4486.82194-2.002 1.46485-.5452.63476-.9643 1.40381-1.2573 2.30713-.293.90332-.4394 1.92057-.4394 3.0518 0 1.4973.2319 2.7994.6958 3.9062.472 1.0986 1.1718 1.9491 2.0996 2.5513.9358.6022 2.1037.9033 3.5034.9033.7975 0 1.5462-.0651 2.2461-.1953.708-.1384 1.3957-.3093 2.063-.5127v1.8066c-.6511.2442-1.3347.4232-2.0508.5371-.7162.1221-1.5666.1831-2.5513.1831-1.8148 0-3.3325-.3743-4.5532-1.123-1.2126-.7568-2.124-1.8229-2.7344-3.1982-.6022-1.3754-.9033-2.9989-.9033-4.8707 0-1.35087.1872-2.58378.5615-3.69868.3825-1.12305.9359-2.09148 1.6602-2.90528.7324-.8138 1.6276-1.44043 2.6855-1.87988 1.0661-.44759 2.2868-.67139 3.6621-.67139.9034 0 1.7741.08952 2.6123.26856.8383.17903 1.5951.43538 2.2706.76904l-.8301 1.75781c-.5697-.26041-1.1963-.48421-1.8799-.67138-.6755-.19532-1.4079-.29297-2.1973-.29297ZM99.5166 19V1.15332h2.0754V19h-2.0754Zm16.4634 0h-2.087V2.98438h-5.616V1.15332h13.294v1.83106h-5.591V19Zm16.842-8.8989 4.748-8.94778h2.234l-5.945 10.92528V19h-2.075v-6.8237l-5.957-11.02298h2.271l4.724 8.94778Z" fill="#69B9FF"/></svg>
