
<svg width="94" height="94" fill="none" xmlns="http://www.w3.org/2000/svg"><g filter="url(#a)"><path fill="#69B9FF" d="M0 0h94v94H0z"/><path fill-rule="evenodd" clip-rule="evenodd" d="M65.8 26.0067V18.8c0-5.3266-4.0733-9.39998-9.4-9.39998H37.6c-5.3267 0-9.4 4.07338-9.4 9.39998v7.2067C22.56 31.02 18.8 38.54 18.8 47s3.76 15.98 9.4 20.9934V75.2c0 5.3267 4.0733 9.4 9.4 9.4h18.8c5.3267 0 9.4-4.0733 9.4-9.4v-7.2066C71.44 62.98 75.2 55.46 75.2 47s-3.76-15.98-9.4-20.9933ZM34.4667 18.8c0-1.88 1.2533-3.1333 3.1333-3.1333h18.8c1.88 0 3.1333 1.2533 3.1333 3.1333v2.82C55.7733 19.74 51.3867 18.8 47 18.8c-4.3867 0-8.7733.94-12.5333 2.82V18.8Zm25.0666 56.4c0 1.88-1.2533 3.1334-3.1333 3.1334H37.6c-1.88 0-3.1333-1.2534-3.1333-3.1334v-2.82c3.76 1.88 8.1466 2.82 12.5333 2.82 4.3867 0 8.7733-.94 12.5333-2.82v2.82ZM47 68.9334C34.78 68.9334 25.0667 59.22 25.0667 47c0-12.22 9.7133-21.9333 21.9333-21.9333 12.22 0 21.9333 9.7133 21.9333 21.9333 0 12.22-9.7133 21.9334-21.9333 21.9334Zm3.1333-23.1867v-11.28c0-1.88-1.2533-3.1333-3.1333-3.1333-1.88 0-3.1333 1.2533-3.1333 3.1333V47c0 .94.3133 1.5667.94 2.1934l6.2666 6.2666c.6267.6267 1.5667.94 2.1934.94.6266 0 1.5666-.3133 2.1933-.94 1.2533-1.2533 1.2533-3.1333 0-4.3866l-5.3267-5.3267Z" fill="#fff"/><path stroke="#fff" stroke-width="10" d="M5 5h84v84H5z"/></g><defs><filter id="a" x="0" y="0" width="94" height="94" filterUnits="userSpaceOnUse" color-interpolation-filters="sRGB"><feFlood flood-opacity="0" result="BackgroundImageFix"/><feColorMatrix in="SourceAlpha" values="0 0 0 0 0 0 0 0 0 0 0 0 0 0 0 0 0 0 127 0" result="hardAlpha"/><feOffset/><feColorMatrix values="0 0 0 0 0.180392 0 0 0 0 0.615686 0 0 0 0 1 0 0 0 1 0"/><feBlend in2="BackgroundImageFix" result="effect1_dropShadow_2_30"/><feBlend in="SourceGraphic" in2="effect1_dropShadow_2_30" result="shape"/></filter></defs></svg>