<svg width="19" height="14" fill="none" xmlns="http://www.w3.org/2000/svg"><path d="M13.6 4.60003s-1.4667 4.66667-1.6 5c-.0667-.4-1.1334-8.73333-1.1334-8.73333-2.53329 0-3.86662 1.8-4.59995 3.66667 0 0-1.8 4.66666-1.93333 5.06666 0-.33333-.26667-5-.26667-5C3.93332 2.2667 1.79998.8667.06665.8667l2.06667 12.6c2.66666 0 4.06666-1.8 4.8-3.66667 0 0 1.6-4.13333 1.66666-4.26666 0 .2 1.13334 8.00003 1.13334 8.00003C12.4 13.5334 13.8 11.8667 14.6 10L18.3333.8667c-2.6 0-4 1.8-4.7333 3.73333Z" fill="#000"/></svg>